<svg width="69" height="69" viewBox="0 0 69 69" fill="none" xmlns="http://www.w3.org/2000/svg">
<path d="M16.8188 49.1625C19.2625 47.2938 21.9938 45.8203 25.0125 44.7422C28.0313 43.6641 31.1938 43.125 34.5 43.125C37.8063 43.125 40.9688 43.6641 43.9875 44.7422C47.0063 45.8203 49.7375 47.2938 52.1812 49.1625C53.8583 47.1979 55.1641 44.9698 56.0984 42.4781C57.0328 39.9865 57.5 37.3271 57.5 34.5C57.5 28.1271 55.2599 22.7005 50.7797 18.2203C46.2995 13.7401 40.8729 11.5 34.5 11.5C28.1271 11.5 22.7005 13.7401 18.2203 18.2203C13.7401 22.7005 11.5 28.1271 11.5 34.5C11.5 37.3271 11.9672 39.9865 12.9016 42.4781C13.8359 44.9698 15.1417 47.1979 16.8188 49.1625ZM34.5 37.375C31.6729 37.375 29.2891 36.4047 27.3484 34.4641C25.4078 32.5234 24.4375 30.1396 24.4375 27.3125C24.4375 24.4854 25.4078 22.1016 27.3484 20.1609C29.2891 18.2203 31.6729 17.25 34.5 17.25C37.3271 17.25 39.7109 18.2203 41.6516 20.1609C43.5922 22.1016 44.5625 24.4854 44.5625 27.3125C44.5625 30.1396 43.5922 32.5234 41.6516 34.4641C39.7109 36.4047 37.3271 37.375 34.5 37.375ZM34.5 63.25C30.5229 63.25 26.7854 62.4953 23.2875 60.9859C19.7896 59.4766 16.7469 57.4281 14.1594 54.8406C11.5719 52.2531 9.52344 49.2104 8.01406 45.7125C6.50469 42.2146 5.75 38.4771 5.75 34.5C5.75 30.5229 6.50469 26.7854 8.01406 23.2875C9.52344 19.7896 11.5719 16.7469 14.1594 14.1594C16.7469 11.5719 19.7896 9.52344 23.2875 8.01406C26.7854 6.50469 30.5229 5.75 34.5 5.75C38.4771 5.75 42.2146 6.50469 45.7125 8.01406C49.2104 9.52344 52.2531 11.5719 54.8406 14.1594C57.4281 16.7469 59.4766 19.7896 60.9859 23.2875C62.4953 26.7854 63.25 30.5229 63.25 34.5C63.25 38.4771 62.4953 42.2146 60.9859 45.7125C59.4766 49.2104 57.4281 52.2531 54.8406 54.8406C52.2531 57.4281 49.2104 59.4766 45.7125 60.9859C42.2146 62.4953 38.4771 63.25 34.5 63.25Z" fill="#B3261E"/>
</svg>
